<?xml version="1.0" encoding="iso-8859-1"?>
<!-- Generator: Adobe Illustrator 16.0.0, SVG Export Plug-In . SVG Version: 6.00 Build 0)  -->
<!DOCTYPE svg PUBLIC "-//W3C//DTD SVG 1.1//EN" "http://www.w3.org/Graphics/SVG/1.1/DTD/svg11.dtd">
<svg version="1.1" id="Capa_1" xmlns="http://www.w3.org/2000/svg" xmlns:xlink="http://www.w3.org/1999/xlink" x="0px" y="0px"
	 width="19.22px" height="18.91px" viewBox="0 0 19.22 18.91" style="enable-background:new 0 0 19.22 18.91;" xml:space="preserve"
	>
<path style="fill-rule:evenodd;clip-rule:evenodd;" d="M18.029,4.975c-1.452-2.841-5.127-5.528-9.752-4.876
	C0.865,1.14-3.04,10.527,2.878,16.297C10.036,23.276,23.25,15.173,18.029,4.975z M7.581,18.386C3.753,17.734,0.516,13.75,0.44,9.678
	C0.343,4.593,3.871,1.24,8.104,0.62c5.924-0.869,11.265,3.456,10.449,10.103C17.885,16.176,12.805,19.277,7.581,18.386z M5.84,5.324
	C5.605,5.613,4.851,5.382,4.62,5.672c0.95,2.88,1.793,5.87,2.961,8.533c1.114-2.884,2.343-5.696,0.522-8.533
	c-0.292-0.29-1.273,0.111-1.22-0.523c0.778-0.312,4.271-0.312,5.05,0c-0.002,0.578-0.982,0.177-1.219,0.523
	c0.963,2.811,1.735,5.814,2.961,8.36c0.327-2.11,1.444-2.872,1.393-5.052c-0.055-2.484-3.17-4.662-0.174-5.748
	C11.977,0.102,4.153,1.06,2.878,4.975C4.041,5.225,5.613,4.453,5.84,5.324z M13.676,16.297c3.17-1.164,5.382-6.925,2.96-10.452
	C16.688,9.683,14.62,12.875,13.676,16.297z M5.84,16.645c-1.169-3.594-2.372-7.152-3.833-10.45
	C0.334,10.545,2.473,15.233,5.84,16.645z M7.231,17.167c1.154,0.604,3.683,0.419,4.876,0c-0.761-2.374-1.339-4.929-2.612-6.793
	C8.884,12.782,8.044,14.962,7.231,17.167z"/>
<g>
</g>
<g>
</g>
<g>
</g>
<g>
</g>
<g>
</g>
<g>
</g>
<g>
</g>
<g>
</g>
<g>
</g>
<g>
</g>
<g>
</g>
<g>
</g>
<g>
</g>
<g>
</g>
<g>
</g>
</svg>
